<svg width="31" height="31" viewBox="0 0 31 31" fill="none" xmlns="http://www.w3.org/2000/svg">
<path fill-rule="evenodd" clip-rule="evenodd" d="M0.289455 29.4527C0.0161452 29.0104 -0.00870085 28.4582 0.22379 27.9932L13.7238 0.993241C13.9779 0.485067 14.4973 0.164062 15.0654 0.164062C15.6336 0.164062 16.153 0.485067 16.4071 0.993241L29.9071 27.9932C30.1396 28.4582 30.1147 29.0104 29.8414 29.4527C29.5681 29.8949 29.0853 30.1641 28.5654 30.1641H1.56543C1.04556 30.1641 0.562765 29.8949 0.289455 29.4527ZM1.56543 28.6641L3.5 29H27L28.5654 28.6641L15.0654 1.16406L1.56543 28.6641Z" fill="#363636"/>
<path fill-rule="evenodd" clip-rule="evenodd" d="M20.9991 12.7508H8.99906V11.2508H20.9991V12.7508Z" fill="#363636"/>
<path fill-rule="evenodd" clip-rule="evenodd" d="M24.9991 20.5008L4.49906 20.5008L5.24906 19.5008H24.7491L24.9991 20.5008Z" fill="#363636"/>
<path d="M15.0654 1.16406L17.9991 5.50079L20.4991 11.5008L8.99906 11.5008L11.9991 6.00079L15.0654 1.16406Z" fill="#363636"/>
<path d="M24.9991 20.5008L29 27.5L28.5654 28.6641L27 29H3.5L1.56543 28.6641L1 27.5L4.49906 20.5008L24.9991 20.5008Z" fill="#363636"/>
</svg>
