<svg width="20" height="21" viewBox="0 0 20 21" fill="none" xmlns="http://www.w3.org/2000/svg">
<g id="Social Icons">
<path id="Vector" d="M19.8008 6.55176C19.8008 6.55176 19.6055 5.17285 19.0039 4.56738C18.2422 3.77051 17.3906 3.7666 17 3.71973C14.2031 3.5166 10.0039 3.5166 10.0039 3.5166H9.99609C9.99609 3.5166 5.79687 3.5166 3 3.71973C2.60938 3.7666 1.75781 3.77051 0.996094 4.56738C0.394531 5.17285 0.203125 6.55176 0.203125 6.55176C0.203125 6.55176 0 8.17285 0 9.79004V11.3057C0 12.9229 0.199219 14.5439 0.199219 14.5439C0.199219 14.5439 0.394531 15.9229 0.992187 16.5283C1.75391 17.3252 2.75391 17.2979 3.19922 17.3838C4.80078 17.5361 10 17.583 10 17.583C10 17.583 14.2031 17.5752 17 17.376C17.3906 17.3291 18.2422 17.3252 19.0039 16.5283C19.6055 15.9229 19.8008 14.5439 19.8008 14.5439C19.8008 14.5439 20 12.9268 20 11.3057V9.79004C20 8.17285 19.8008 6.55176 19.8008 6.55176ZM7.93359 13.1455V7.52441L13.3359 10.3447L7.93359 13.1455Z" fill="#7A7A7A"/>
</g>
</svg>
