<svg width="28" height="15" viewBox="0 0 28 15" fill="none" xmlns="http://www.w3.org/2000/svg">
<g id="toggle_darkmode_on_icon">
<g id="Icon">
<path d="M1 7.5C1 3.91015 3.91015 1 7.5 1H20.5C24.0899 1 27 3.91015 27 7.5C27 11.0899 24.0899 14 20.5 14H7.5C3.91015 14 1 11.0899 1 7.5Z" fill="#333333"/>
<path d="M14 7.5C14 3.91015 16.9101 1 20.5 1C24.0899 1 27 3.91015 27 7.5C27 11.0899 24.0899 14 20.5 14C16.9101 14 14 11.0899 14 7.5Z" fill="#DADADA"/>
<path d="M20.5 14H7.5C3.91015 14 1 11.0899 1 7.5C1 3.91015 3.91015 1 7.5 1H20.5M20.5 14C24.0899 14 27 11.0899 27 7.5C27 3.91015 24.0899 1 20.5 1M20.5 14C16.9101 14 14 11.0899 14 7.5C14 3.91015 16.9101 1 20.5 1" stroke="#DADADA" stroke-width="2"/>
</g>
<path id="Icon_2" d="M18 7L18.5 7.5L20 9L21.5 7.5L23 6" stroke="#333333" stroke-linecap="round" stroke-linejoin="round"/>
</g>
</svg>
