<svg width="26" height="26" viewBox="0 0 26 26" fill="none" xmlns="http://www.w3.org/2000/svg">
<path d="M13 4.87519C12.6639 4.87516 12.336 4.97939 12.0615 5.17351C11.7871 5.36763 11.5796 5.64209 11.4677 5.95906C11.3907 6.15538 11.2404 6.31409 11.0486 6.40165C10.8568 6.48922 10.6384 6.49878 10.4397 6.42831C10.2409 6.35784 10.0774 6.21287 9.98356 6.02403C9.88973 5.83518 9.87301 5.61726 9.9369 5.41631C10.1022 4.94945 10.372 4.52654 10.7257 4.17988C11.0794 3.83322 11.5077 3.57198 11.9778 3.41612C12.4478 3.26025 12.9473 3.21389 13.4381 3.28056C13.9288 3.34724 14.3979 3.52519 14.8093 3.80082C15.2208 4.07645 15.5638 4.44248 15.8122 4.87094C16.0606 5.2994 16.2078 5.77897 16.2426 6.27301C16.2773 6.76704 16.1987 7.26249 16.0127 7.7215C15.8267 8.1805 15.5382 8.59093 15.1694 8.92144L15.1028 8.98156C14.7453 9.30169 14.4219 9.58931 14.1765 9.90131C13.9165 10.2231 13.8142 10.4847 13.8142 10.7187C13.8142 11.0746 14.0092 11.4012 14.3228 11.5702L23.01 16.2502C23.5175 16.5245 23.919 16.9602 24.1511 17.4883C24.3832 18.0165 24.4326 18.6069 24.2914 19.1662C24.1503 19.7256 23.8267 20.2219 23.3718 20.5767C22.9169 20.9315 22.3568 21.1245 21.7799 21.1252H4.2169C3.63957 21.1252 3.07876 20.9324 2.62342 20.5775C2.16808 20.2226 1.84428 19.7258 1.70338 19.1659C1.56247 18.606 1.61254 18.0151 1.84562 17.4869C2.0787 16.9587 2.48147 16.5235 2.99003 16.2502L10.1774 12.3827C10.3663 12.2882 10.5846 12.271 10.786 12.3348C10.9873 12.3985 11.156 12.5381 11.2561 12.7241C11.3563 12.91 11.3801 13.1277 11.3225 13.3309C11.2649 13.5341 11.1305 13.7069 10.9477 13.8127L3.75865 17.6802C3.56815 17.7818 3.41713 17.9442 3.32966 18.1416C3.24219 18.339 3.22331 18.56 3.27603 18.7694C3.32875 18.9788 3.45003 19.1645 3.62054 19.2969C3.79106 19.4294 4.001 19.5009 4.2169 19.5002H21.7832C21.9983 19.4995 22.2071 19.4271 22.3766 19.2946C22.5461 19.162 22.6666 18.9768 22.7191 18.7682C22.7717 18.5595 22.7532 18.3393 22.6667 18.1423C22.5802 17.9453 22.4306 17.7827 22.2414 17.6802L13.5525 13.0002C13.1408 12.7779 12.7966 12.4487 12.5564 12.0471C12.3161 11.6456 12.1887 11.1866 12.1875 10.7187C12.1875 9.96794 12.532 9.35531 12.9025 8.88894C13.2405 8.46481 13.663 8.08781 13.9978 7.78881L14.0855 7.71081C14.3308 7.49124 14.5035 7.20238 14.5809 6.88246C14.6584 6.56253 14.6368 6.22664 14.5192 5.91924C14.4015 5.61183 14.1932 5.34741 13.9219 5.16097C13.6507 4.97454 13.3292 4.87488 13 4.87519Z" fill="white"/>
</svg>
