<svg width="30" height="30" viewBox="0 0 30 30" fill="none" xmlns="http://www.w3.org/2000/svg">
<path fill-rule="evenodd" clip-rule="evenodd" d="M0.224025 29.2886C-0.0492845 28.8464 -0.0741306 28.2942 0.158361 27.8292L13.6584 0.829179C13.9124 0.321004 14.4318 0 15 0C15.5682 0 16.0876 0.321004 16.3416 0.829179L29.8416 27.8292C30.0741 28.2942 30.0493 28.8464 29.776 29.2886C29.5027 29.7308 29.0199 30 28.5 30H1.5C0.980135 30 0.497335 29.7308 0.224025 29.2886ZM1.5 28.5H28.5L15 1.5L1.5 28.5Z" fill="#363636"/>
<path fill-rule="evenodd" clip-rule="evenodd" d="M21 12.75H9V11.25H21V12.75Z" fill="#363636"/>
<path fill-rule="evenodd" clip-rule="evenodd" d="M24.75 21H5.25V19.5H24.75V21Z" fill="#363636"/>
<path d="M15 1.5L15.5 1L17.5 5.5L21 11.5H9L12.5 5.5L14.5 1L15 1.5Z" fill="#363636"/>
<path d="M21 12L24.75 19.9004L5.25 20L9 12H21Z" fill="#363636"/>
</svg>
