<svg width="24" height="25" viewBox="0 0 24 25" fill="none" xmlns="http://www.w3.org/2000/svg">
<path fill-rule="evenodd" clip-rule="evenodd" d="M7 4.30176C4.65279 4.30176 2.75 6.20455 2.75 8.55176V21.4711C2.75 21.6808 2.99248 21.7973 3.15617 21.6663L5.98365 19.4044C6.47126 19.0143 7.07712 18.8018 7.70156 18.8018H17C19.3472 18.8018 21.25 16.899 21.25 14.5518V8.55176C21.25 6.20455 19.3472 4.30176 17 4.30176H7ZM1.25 8.55176C1.25 5.37612 3.82436 2.80176 7 2.80176H17C20.1756 2.80176 22.75 5.37612 22.75 8.55176V14.5518C22.75 17.7274 20.1756 20.3018 17 20.3018H7.70156C7.41772 20.3018 7.14233 20.3984 6.92069 20.5757L4.09322 22.8377C2.94738 23.7543 1.25 22.9385 1.25 21.4711V8.55176Z" fill="white"/>
<path d="M8.29999 11.6016C8.29999 12.2919 7.74034 12.8516 7.04999 12.8516C6.35963 12.8516 5.79999 12.2919 5.79999 11.6016C5.79999 10.9112 6.35963 10.3516 7.04999 10.3516C7.74034 10.3516 8.29999 10.9112 8.29999 11.6016Z" fill="white"/>
<path d="M13.3 11.6016C13.3 12.2919 12.7403 12.8516 12.05 12.8516C11.3596 12.8516 10.8 12.2919 10.8 11.6016C10.8 10.9112 11.3596 10.3516 12.05 10.3516C12.7403 10.3516 13.3 10.9112 13.3 11.6016Z" fill="white"/>
<path d="M18.3 11.6016C18.3 12.2919 17.7403 12.8516 17.05 12.8516C16.3596 12.8516 15.8 12.2919 15.8 11.6016C15.8 10.9112 16.3596 10.3516 17.05 10.3516C17.7403 10.3516 18.3 10.9112 18.3 11.6016Z" fill="white"/>
</svg>
